<svg width="228" height="112" viewBox="0 0 228 112" fill="none" xmlns="http://www.w3.org/2000/svg">
<rect width="11.3216" height="105.497" transform="matrix(0.984602 -0.173577 0.190878 0.981757 10.7336 6.64771)" fill="black"/>
<rect width="11.2222" height="105.497" transform="matrix(0.984607 -0.17355 0.190827 0.981766 39.0807 1.94757)" fill="black"/>
<rect width="8.09286" height="70.3339" transform="matrix(0.984562 -0.17378 0.191284 0.981687 2.9881 24.3644)" fill="black"/>
<rect width="11.2879" height="105.497" transform="matrix(0.984604 -0.173568 0.19086 0.98176 24.8906 4.3006)" fill="black"/>
<rect width="11.3216" height="105.497" transform="matrix(-0.984602 -0.173577 -0.190878 0.981757 217.266 6.64771)" fill="black"/>
<rect width="11.2222" height="105.497" transform="matrix(-0.984607 -0.17355 -0.190827 0.981766 188.919 1.94757)" fill="black"/>
<rect width="8.09286" height="70.3339" transform="matrix(-0.984562 -0.17378 -0.191284 0.981687 225.012 24.3644)" fill="black"/>
<rect width="11.2879" height="105.497" transform="matrix(-0.984604 -0.173568 -0.19086 0.98176 203.109 4.3006)" fill="black"/>
<rect width="6.28242" height="13.2758" transform="matrix(-0.986533 -0.163561 -0.184317 0.982867 224.186 56.8679)" fill="black"/>
<rect width="6.28242" height="15.6215" transform="matrix(-0.986533 0.163561 -0.184317 -0.982867 11.8085 68.5587)" fill="black"/>
<rect width="8.06879" height="105.478" transform="matrix(-0.984834 -0.1724 -0.189134 0.982056 213.878 6.07367)" fill="black"/>
<rect width="8.06879" height="105.478" transform="matrix(-0.984834 -0.1724 -0.189134 0.982056 185.634 1.39105)" fill="black"/>
<rect width="8.09286" height="70.3339" transform="matrix(-0.984562 -0.17378 -0.191284 0.981687 225.012 24.3644)" fill="black"/>
<rect width="8.06879" height="105.478" transform="matrix(-0.984834 -0.1724 -0.189134 0.982056 199.756 3.73236)" fill="black"/>
<path d="M58.5 51.19C103.832 43.807 129.31 44.319 168.5 51.19" stroke="black" stroke-width="8"/>
</svg>
